<?xml version='1.0' encoding='utf-8'?>
<svg xmlns="http://www.w3.org/2000/svg" class="segno" height="330" width="330"><defs><filter id="segno-blur"><feGaussianBlur in="SourceGraphic" stdDeviation="0.3" /></filter></defs><path class="qrline" d="M4 4.5h7m1 0h5m3 0h1m1 0h7m-25 1h1m5 0h1m1 0h1m1 0h2m2 0h1m3 0h1m5 0h1m-25 1h1m1 0h3m1 0h1m6 0h2m3 0h1m1 0h3m1 0h1m-25 1h1m1 0h3m1 0h1m1 0h2m2 0h1m2 0h1m2 0h1m1 0h3m1 0h1m-25 1h1m1 0h3m1 0h1m2 0h1m1 0h1m2 0h1m1 0h1m1 0h1m1 0h3m1 0h1m-25 1h1m5 0h1m6 0h1m4 0h1m5 0h1m-25 1h7m1 0h1m1 0h1m1 0h1m1 0h1m1 0h1m1 0h7m-17 1h1m1 0h3m1 0h1m1 0h1m-17 1h1m1 0h2m1 0h3m1 0h3m1 0h1m1 0h2m1 0h1m2 0h1m1 0h2m-25 1h1m4 0h1m3 0h1m3 0h1m8 0h1m-23 1h1m1 0h1m1 0h6m2 0h2m2 0h2m2 0h2m1 0h1m-23 1h1m2 0h2m2 0h2m1 0h2m3 0h1m3 0h3m1 0h1m-25 1h4m2 0h1m1 0h1m1 0h1m1 0h1m1 0h2m1 0h2m1 0h2m2 0h1m-24 1h1m2 0h1m6 0h2m1 0h4m2 0h5m-24 1h1m1 0h4m1 0h1m1 0h2m1 0h1m2 0h3m3 0h2m-24 1h1m1 0h1m1 0h1m2 0h2m2 0h1m2 0h4m2 0h1m2 0h1m-20 1h1m1 0h1m1 0h1m3 0h1m1 0h7m1 0h1m1 0h1m-17 1h3m3 0h1m1 0h1m3 0h1m1 0h1m-23 1h7m1 0h2m3 0h4m1 0h1m1 0h1m2 0h2m-25 1h1m5 0h1m1 0h4m1 0h4m3 0h1m2 0h2m-25 1h1m1 0h3m1 0h1m2 0h1m3 0h2m1 0h5m-21 1h1m1 0h3m1 0h1m1 0h3m6 0h2m1 0h1m1 0h3m-25 1h1m1 0h3m1 0h1m1 0h1m5 0h8m1 0h1m-24 1h1m5 0h1m2 0h1m1 0h4m4 0h1m1 0h2m-23 1h7m1 0h4m3 0h1m3 0h1m1 0h1m1 0h2" filter="url(#segno-blur)" stroke="#8b0000" transform="scale(10)" /></svg>