<?xml version='1.0' encoding='utf-8'?>
<svg xmlns="http://www.w3.org/2000/svg" xmlns:xlink="http://www.w3.org/1999/xlink" class="segno" height="495" width="495"><defs><circle cx="1" cy="1" fill="#fc0" id="dot" r=".5" stroke="none" transform="scale(.2)" /><!--
The "ghost" was created by James Fenton
Source:  <https://thenounproject.com/term/pacman/193957/>
License: CC BY 3.0 US - <https://creativecommons.org/licenses/by/3.0/us/>
--><g id="ghost" transform="scale(.08)"><circle cx="6.588" cy="4.515" r=".526" /><path d="M4.031 0c-2.136 0-3.883 1.663-4.02 3.757h-.011v5.799s.232.663.926-.168c.705-.831 1.21.168 1.21.168s.547 1 1.21 0c.663-1 1.315 0 1.315 0s.61.852 1.168 0c.558-.852 1.116-.168 1.116-.168s1.073 1.158 1.073 0c0-.863.042-5.157.042-5.357 0-2.221-1.8-4.031-4.031-4.031zm-.295 5.736c-.579 0-1.052-.547-1.052-1.231 0-.674.474-1.231 1.052-1.231.579 0 1.052.547 1.052 1.231s-.463 1.231-1.052 1.231zm2.515 0c-.579 0-1.052-.547-1.052-1.231 0-.674.474-1.231 1.052-1.231.579 0 1.052.547 1.052 1.231s-.474 1.231-1.052 1.231z" /><circle cx="4.073" cy="4.515" r=".526" /></g></defs><g transform="scale(15)"><path class="qrline" d="M4 4.5h7m1 0h5m3 0h1m1 0h7m-25 1h1m5 0h1m1 0h1m1 0h2m2 0h1m3 0h1m5 0h1m-25 1h1m1 0h3m1 0h1m6 0h2m3 0h1m1 0h3m1 0h1m-25 1h1m1 0h3m1 0h1m1 0h2m2 0h1m2 0h1m2 0h1m1 0h3m1 0h1m-25 1h1m1 0h3m1 0h1m2 0h1m1 0h1m2 0h1m1 0h1m1 0h1m1 0h3m1 0h1m-25 1h1m5 0h1m6 0h1m4 0h1m5 0h1m-25 1h7m1 0h1m1 0h1m1 0h1m1 0h1m1 0h1m1 0h7m-17 1h1m1 0h3m1 0h1m1 0h1m-17 1h1m1 0h2m1 0h3m1 0h3m1 0h1m1 0h2m1 0h1m2 0h1m1 0h2m-25 1h1m4 0h1m3 0h1m3 0h1m8 0h1m-23 1h1m1 0h1m1 0h6m2 0h2m2 0h2m2 0h2m1 0h1m-23 1h1m2 0h2m2 0h2m1 0h2m3 0h1m3 0h3m1 0h1m-25 1h4m2 0h1m1 0h1m1 0h1m1 0h1m1 0h2m1 0h2m1 0h2m2 0h1m-24 1h1m2 0h1m6 0h2m1 0h4m2 0h5m-24 1h1m1 0h4m1 0h1m1 0h2m1 0h1m2 0h3m3 0h2m-24 1h1m1 0h1m1 0h1m2 0h2m2 0h1m2 0h4m2 0h1m2 0h1m-20 1h1m1 0h1m1 0h1m3 0h1m1 0h7m1 0h1m1 0h1m-17 1h3m3 0h1m1 0h1m3 0h1m1 0h1m-23 1h7m1 0h2m3 0h4m1 0h1m1 0h1m2 0h2m-25 1h1m5 0h1m1 0h4m1 0h4m3 0h1m2 0h2m-25 1h1m1 0h3m1 0h1m2 0h1m3 0h2m1 0h5m-21 1h1m1 0h3m1 0h1m1 0h3m6 0h2m1 0h1m1 0h3m-25 1h1m1 0h3m1 0h1m1 0h1m5 0h8m1 0h1m-24 1h1m5 0h1m2 0h1m1 0h4m4 0h1m1 0h2m-23 1h7m1 0h4m3 0h1m3 0h1m1 0h1m1 0h2" stroke="#000" /><g transform="translate(19.1, 26.1)"><path d="M.947.724a.5.5 0 1 1 .001-.446l-.448.222z" fill="#fc0" transform="scale(.8)" /><use x="1.2" y=".2" xlink:href="#dot" /><use x="2.2" y=".2" xlink:href="#dot" /><use x="3.2" y=".2" xlink:href="#dot" /><use x="4.2" y=".2" xlink:href="#dot" /><use x="5.2" y=".2" xlink:href="#dot" /><use x="6.2" y=".2" xlink:href="#dot" /></g><g fill="#ff0c13"><use x="21.2" y="18.1" xlink:href="#ghost" /></g><g fill="#f2aeaf"><use x="25.2" y="27.1" xlink:href="#ghost" /><use x="28.2" y="23.1" xlink:href="#ghost" /><use x="5.2" y="16.1" xlink:href="#ghost" /></g><g fill="#1bb1e6"><use x="15.2" y="27.1" xlink:href="#ghost" /><use x="13.2" y="4.1" xlink:href="#ghost" /></g><g fill="#f97e16"><use x="10.2" y="14.1" xlink:href="#ghost" /></g></g></svg>